<svg xmlns="http://www.w3.org/2000/svg" viewBox="0 0 128 128" role="img" aria-label="Jellyfin">
  <defs>
    <linearGradient id="jg" x1="0%" y1="0%" x2="100%" y2="100%">
      <stop offset="0%" stop-color="#b04fd8"/>
      <stop offset="100%" stop-color="#1aa8de"/>
    </linearGradient>
    <linearGradient id="jgi" x1="0%" y1="0%" x2="100%" y2="100%">
      <stop offset="0%" stop-color="#8e6ad7"/>
      <stop offset="100%" stop-color="#5aa2df"/>
    </linearGradient>
  </defs>
  <path fill="url(#jg)" d="M64 8C39 32 6 86 6 111c0 7 4 12 11 15 9 4 24 6 47 7 23 1 38-1 47-5 7-3 11-8 11-15 0-26-33-80-58-105zM64 24c18 20 40 58 40 81 0 3-2 5-5 7-6 2-18 4-35 3-17 0-29-2-35-5-3-1-5-4-5-6 0-23 22-61 40-80z"/>
  <path fill="url(#jgi)" d="M64 56c-10 10-20 28-20 37 0 4 2 7 5 8 4 2 9 3 15 3 7 0 12-1 16-3 3-1 4-4 4-8 0-9-10-27-20-37z"/>
</svg>
