<svg xmlns="http://www.w3.org/2000/svg" viewBox="0 0 512 512" role="img" aria-label="Jellyfin">
  <defs>
    <linearGradient id="jg" x1="22%" y1="18%" x2="80%" y2="88%">
      <stop offset="0%" stop-color="#b46adf"/>
      <stop offset="100%" stop-color="#169bdb"/>
    </linearGradient>
  </defs>
  <path fill="url(#jg)" d="M256 64c-18 0-34 8-47 23L103 204c-21 23-32 52-32 83v84c0 22 17 39 39 39h292c22 0 39-17 39-39v-84c0-31-11-60-32-83L303 87c-13-15-29-23-47-23z"/>
  <path fill="#ffffff" d="M256 128c-11 0-21 5-29 15l-60 76c-14 18-24 41-29 67-7 34 8 46 37 46h162c29 0 44-12 37-46-5-26-15-49-29-67l-60-76c-8-10-18-15-29-15z"/>
  <path fill="url(#jg)" d="M256 180c-6 0-12 3-17 10l-34 48c-10 15-17 33-21 52-4 19 4 26 20 26h104c16 0 24-7 20-26-4-19-11-37-21-52l-34-48c-5-7-11-10-17-10z"/>
</svg>
