<svg xmlns="http://www.w3.org/2000/svg" viewBox="0 0 128 128" role="img" aria-label="Komga">
  <defs>
    <clipPath id="c">
      <circle cx="64" cy="64" r="64"/>
    </clipPath>
  </defs>
  <g clip-path="url(#c)">
    <rect width="128" height="128" fill="#0f5fc9"/>
    <polygon points="64,64 128,128 128,66 90,40 64,64" fill="#0b4fa8" opacity="0.9"/>
    <polygon fill="#f4d742" points="64,12 74,36 101,23 96,50 122,54 102,72 122,82 96,86 101,113 74,100 64,124 54,100 27,113 32,86 6,82 26,72 6,54 32,50 27,23 54,36"/>
    <polygon fill="#ff1147" points="64,24 72,44 94,34 90,56 112,60 95,74 112,80 90,84 94,106 72,96 64,114 56,96 34,106 38,84 16,80 33,74 16,60 38,56 34,34 56,44"/>
    <path fill="#dddddd" stroke="#111111" stroke-width="2.2" d="M37 47l17-4 6 29 4-21 14-2-5 24 17 22-15 3-11-16 5 18-15 4z"/>
  </g>
</svg>
