<svg xmlns="http://www.w3.org/2000/svg" viewBox="0 0 128 128" role="img" aria-label="RomM">
  <defs>
    <clipPath id="rc">
      <circle cx="64" cy="64" r="64"/>
    </clipPath>
  </defs>
  <g clip-path="url(#rc)">
    <rect width="128" height="128" fill="#b39ddb"/>
    <path d="M0 0h128v26H30c-7 0-10 2-13 5L0 49z" fill="#d7d0e6"/>
    <path d="M12 30h80c7 0 10 2 13 5l8 7c5 4 8 8 10 13l15 44c4 11 6 20 6 29H12c-4-9-6-18-6-29z" fill="#5b43a0"/>
    <path d="M128 18v110H12L96 44z" fill="#44297f"/>
    <circle cx="54" cy="54" r="8" fill="#d9be9d"/>
    <circle cx="69" cy="44" r="8" fill="#d9be9d"/>
    <circle cx="84" cy="54" r="8" fill="#d89f8a"/>
    <circle cx="69" cy="69" r="8" fill="#d89f8a"/>
    <path d="M0 102h52c8 0 13 2 18 6l21 20H0z" fill="#ab97d0"/>
  </g>
</svg>
