<svg xmlns="http://www.w3.org/2000/svg" viewBox="0 0 512 512" role="img" aria-label="RomM">
  <path fill="#b59fd4" d="M0 0h512v512H0z"/>
  <path fill="#d8d2e5" d="M20 36h380v84H162c-26 0-44 6-58 22L20 228z"/>
  <path fill="#5a43a3" d="M48 118h292c42 0 67 11 89 39l22 27c15 18 25 40 34 72l47 171H48C18 365 7 325 7 270c0-48 10-92 41-152z"/>
  <path fill="#40257b" d="M320 20h98v213L512 427H325L187 286z"/>
  <circle cx="217" cy="204" r="41" fill="#e6cca6"/>
  <circle cx="274" cy="144" r="41" fill="#e6cca6"/>
  <circle cx="333" cy="206" r="41" fill="#dea287"/>
  <circle cx="275" cy="268" r="41" fill="#dea287"/>
  <path fill="#b59fd4" d="M0 420h170c43 0 68 8 94 34l68 58H0z"/>
</svg>
